<svg width="42" height="42" viewBox="0 0 42 42" fill="none" xmlns="http://www.w3.org/2000/svg">
<path opacity="0.15" fill-rule="evenodd" clip-rule="evenodd" d="M8 15H32V25H8V15ZM10 17H30V23H10V17ZM12 26C12 24.8954 12.8954 24 14 24C15.1046 24 16 24.8954 16 26C16 27.1046 15.1046 28 14 28C12.8954 28 12 27.1046 12 26ZM26 26C26 24.8954 26.8954 24 28 24C29.1046 24 30 24.8954 30 26C30 27.1046 29.1046 28 28 28C26.8954 28 26 27.1046 26 26Z" fill="url(#paint0_linear)"/>
<path d="M8 15H32V25H8V15ZM10 17H30V23H10V17ZM12 26C12 24.8954 12.8954 24 14 24C15.1046 24 16 24.8954 16 26C16 27.1046 15.1046 28 14 28C12.8954 28 12 27.1046 12 26ZM26 26C26 24.8954 26.8954 24 28 24C29.1046 24 30 24.8954 30 26C30 27.1046 29.1046 28 28 28C26.8954 28 26 27.1046 26 26Z" fill="url(#paint1_linear)" stroke="url(#paint2_linear)" stroke-width="0.25"/>
<defs>
<linearGradient id="paint0_linear" x1="8" y1="15" x2="32" y2="28" gradientUnits="userSpaceOnUse">
<stop offset="0.259336" stop-color="#FFDB6E"/>
<stop offset="1" stop-color="#FFBC5E"/>
</linearGradient>
<linearGradient id="paint1_linear" x1="8" y1="15" x2="32" y2="28" gradientUnits="userSpaceOnUse">
<stop offset="0.259336" stop-color="#FFDB6E"/>
<stop offset="1" stop-color="#FFBC5E"/>
</linearGradient>
<linearGradient id="paint2_linear" x1="8" y1="15" x2="32" y2="28" gradientUnits="userSpaceOnUse">
<stop offset="0.259336" stop-color="#FFDB6E"/>
<stop offset="1" stop-color="#FFBC5E"/>
</linearGradient>
</defs>
</svg> 