<svg width="42" height="42" viewBox="0 0 42 42" fill="none" xmlns="http://www.w3.org/2000/svg">
<path opacity="0.15" fill-rule="evenodd" clip-rule="evenodd" d="M8 12H34V28H8V12ZM10 14H32V26H10V14ZM12 30L18 26H32V14H10V26H18L12 30Z" fill="url(#paint0_linear)"/>
<path d="M8 12H34V28H8V12ZM10 14H32V26H10V14ZM12 30L18 26H32V14H10V26H18L12 30Z" fill="url(#paint1_linear)" stroke="url(#paint2_linear)" stroke-width="0.25"/>
<defs>
<linearGradient id="paint0_linear" x1="8" y1="12" x2="34" y2="30" gradientUnits="userSpaceOnUse">
<stop offset="0.259336" stop-color="#FFDB6E"/>
<stop offset="1" stop-color="#FFBC5E"/>
</linearGradient>
<linearGradient id="paint1_linear" x1="8" y1="12" x2="34" y2="30" gradientUnits="userSpaceOnUse">
<stop offset="0.259336" stop-color="#FFDB6E"/>
<stop offset="1" stop-color="#FFBC5E"/>
</linearGradient>
<linearGradient id="paint2_linear" x1="8" y1="12" x2="34" y2="30" gradientUnits="userSpaceOnUse">
<stop offset="0.259336" stop-color="#FFDB6E"/>
<stop offset="1" stop-color="#FFBC5E"/>
</linearGradient>
</defs>
</svg> 